# xmcd
#
# Track frame offsets:
#	150
#	10525
#	23637
#	34500
#	45000
#	56600
#	68287
#	79375
#	91462
#	102450
#	113487
#	124312
#	135937
#	146625
#	157925
#	175875
#	186262
#	197425
#
# Disc length: 2769 seconds
#
# Revision: 1
# Processed by: cddbd v1.5.2PL0 Copyright (c) Steve Scherf et al.
# Submitted via: audiograbber 1.83.01
#
DISCID=d60acf12
DTITLE=Brook Benton - Brook Benton
DYEAR=1994
DGENRE=
TTITLE0=My true confession
TTITLE1=Baby (You've got what it takes)
TTITLE2=A rockin' good way (To mess around and fall in love)
TTITLE3=Just tell me when
TTITLE4=Kiddio
TTITLE5=Think twice
TTITLE6=Fools rush in
TTITLE7=The Boll Weevil song
TTITLE8=Endlessly
TTITLE9=It's a matter of time
TTITLE10=Shadrack
TTITLE11=Hotel Happiness
TTITLE12=Thank you pretty baby
TTITLE13=The same one
TTITLE14=A rainy night in Georgia
TTITLE15=Revenge
TTITLE16=So many ways
TTITLE17=Lie to me
EXTD=
EXTT0=
EXTT1=
EXTT2=
EXTT3=
EXTT4=
EXTT5=
EXTT6=
EXTT7=
EXTT8=
EXTT9=
EXTT10=
EXTT11=
EXTT12=
EXTT13=
EXTT14=
EXTT15=
EXTT16=
EXTT17=
PLAYORDER=
